<svg xmlns="http://www.w3.org/2000/svg" width="454.96" height="568.7" viewBox="0 0 454.96 568.7" role="img" aria-label="Ear map with detached lobe" data-lobe="detached">
  <!-- Source-mapped anatomy: normalized from the uploaded rendered Stack Bar SVG source; styling changed for this v0 prototype. -->
  <g id="detached-earlobe" transform="translate(-3202.062 -992.26)">
    <path id="Path_213" data-name="Path 213" d="M3442.684,1137.9c10.046-37.231,33.4-71.357,66.406-91.3s77.285-19.4,112.531-3.757c27.128,12.043,46.919,29.937,60.532,56.311s19.916,56.018,22.24,85.607c8.315,105.885-34.767,213.324-109.246,289.046-23.264,23.651-50.794,45.094-83.309,51.682s-96.974-11.515-104.478-92.987" transform="translate(-78.448 -14.938)" fill="none" stroke="#3a2a24" stroke-miterlimit="10" stroke-width="3.4"/>
    <path id="Path_214" data-name="Path 214" d="M3589.312,1291.868c-11.73.706-22.928-6.456-29.634-16.106s-9.551-21.46-11.048-33.115c-3.5-27.212-.142-55.676,12.226-80.166s34.2-44.624,60.527-52.358,56.829-1.991,76.838,16.778c18.946,17.771,26.791,44.329,30.83,69.99,6.211,39.466,5.159,80.594-7.594,118.455s-37.861,72.242-72.506,92.136" transform="translate(-131.931 -43.761)" fill="none" stroke="#3a2a24" stroke-miterlimit="10" stroke-width="3.4"/>
    <path id="Path_215" data-name="Path 215" d="M3549,1257.311a137.6,137.6,0,0,0,61.3-32.216" transform="translate(-132.571 -88.97)" fill="none" stroke="#3a2a24" stroke-miterlimit="10" stroke-width="3.4"/>
    <path id="Path_216" data-name="Path 216" d="M3524.064,1322.63c29.592-8.431,62.882-15.608,89.861-.812a61.616,61.616,0,0,1-.391,108.264c-13.931,7.51-30.269,9.425-44.487,16.376a69.114,69.114,0,0,0-27.871,24.976c-5.419,8.564-8.89,18.237-14.251,26.837s-13.342,16.427-23.365,17.924-21.547-5.895-21.366-16.027c.166-9.362,9.023-15.745,15.862-22.141a69.287,69.287,0,0,0-10.487-109.282" transform="translate(-107.042 -122.662)" fill="none" stroke="#3a2a24" stroke-miterlimit="10" stroke-width="3.4"/>
    <path id="Path_217" data-name="Path 217" d="M3526.94,1436.208a108.547,108.547,0,0,1,81.474,29.115" transform="translate(-124.141 -169.537)" fill="none" stroke="#3a2a24" stroke-miterlimit="10" stroke-width="3.4"/>
    <rect id="Rectangle_185" data-name="Rectangle 185" width="454.96" height="568.7" transform="translate(3202.062 992.26)" fill="none"/>
  </g>
</svg>